
***** A.Nightmare.on.Elm.Street.2010.DVDRiP.XViD.OPTIONAL-MULTI_SUB-Zen_Bud ******

Format                           : AVI
File size                        : 707 MiB
Duration                         : 1h 35mn
Overall bit rate                 : 1 035 Kbps

Video

Format                           : MPEG-4 Visual
Codec ID/Hint                    : XviD
Duration                         : 1h 35mn
Bit rate                         : 894 Kbps
Width                            : 720 pixels
Height                           : 352 pixels
Display aspect ratio             : 2.40:1
Stream size                      : 611 MiB (86%)
Writing library                  : XviD 1.1.2 (UTC 2006-11-01)

Audio

Format                           : MPEG Audio
Codec ID/Hint                    : MP3
Duration                         : 1h 35mn
Bit rate                         : 128 Kbps
Channel(s)                       : 2 channels
Sampling rate                    : 48.0 KHz
Stream size                      : 87.5 MiB (12%)
Writing library                  : LAME3.98
Language                         : English

Text #1
Language                         : Danish

Text #2
Language                         : Finnish

Text #3
Language                         : Swedish